<svg width="24" height="24" fill="none" xmlns="http://www.w3.org/2000/svg"><path d="M20.965 10.903a.596.596 0 0 0-.54.276c-.215-.134-.798-.418-1.024-.534l-.082-.042a.053.053 0 0 0-.041 0v-.013a.352.352 0 0 0 0-.05c.228-4.705-4.533-8.36-9.143-6.945a7.232 7.232 0 0 0-4.702 4.707 8.352 8.352 0 0 0-.297 2.1l-.174.069-.125.052c-.229.101-.458.208-.686.325-.229.117-.457.229-.665.373a.07.07 0 0 0-.028.089c.018.034.059.049.094.034.229-.105.457-.199.686-.286.228-.087.468-.164.706-.228h.014c.114-.035.228-.064.345-.094l.178-.041h.02l.16-.034a7.81 7.81 0 0 1 .725-.115h.028a.25.25 0 1 0-.117-.482 7.629 7.629 0 0 0-.665.185l.043-.014a7.68 7.68 0 0 1 .272-1.872 6.686 6.686 0 0 1 4.343-4.342c.186-.057.371-.105.556-.144.18-.04.903-.142.114.299a6.02 6.02 0 0 0-2.743 3.415c-.228.738-.318 2.194-.158 3.312.05.35-.068.418-.285.51-.457.194-1.257.546-1.669 1.044-.16.192-.228 0-.267-.137a7.014 7.014 0 0 1-.147-1.143.112.112 0 0 0-.139-.103c-.112.028-.229.055-.334.092a.112.112 0 0 0-.075.11c.064 1.47.436 2.836 1.328 2.793a.119.119 0 0 0 .107-.144.686.686 0 0 1-.308-.343c-.295-.883 2.439-2.037 5.943-2.56 3.218-.483 5.981-.263 6.461.47.1.126.11.3.028.437-.203.363-.505.66-.871.857a.132.132 0 0 0-.041.188.13.13 0 0 0 .169.045c.448-.219.822-.566 1.074-.996.142-.323.22-.671.229-1.024.228.07.832.313 1.063.407h.018a.639.639 0 0 0-.018.116.663.663 0 0 0 .598.686.601.601 0 0 0 .629-.578.658.658 0 0 0-.587-.697v-.03Zm-4.508-1.486a.313.313 0 0 1-.329.325c-.77-.06-1.542-.046-2.309.04a.313.313 0 0 1-.338-.321v-.27c0-.068.048-.127.114-.142a8.963 8.963 0 0 1 2.743-.032c.068.012.117.071.115.14l.004.26Zm1.614-.766a.119.119 0 0 1-.144.046c-1.993-.756-5.104-.329-5.104-.329a12.667 12.667 0 0 0-3.122.718.352.352 0 0 1-.478-.339c.008-.273.035-.546.082-.816a4.15 4.15 0 0 1 .862-2.018c.027-.032.055-.064.084-.094a.09.09 0 0 1 .019-.022l.013-.016.035-.037.016-.016c1.355-1.417 3.74-1.58 5.412-.656a5.317 5.317 0 0 1 2.007 1.993c.073.137.535 1.205.318 1.586Z" fill="#000"/><path d="M17.01 6.878a3.463 3.463 0 0 0-1.643-1.44 5.029 5.029 0 0 0-2.434-.37 3.2 3.2 0 0 0-.862.19.117.117 0 0 0 .03.228 7.133 7.133 0 0 1 1.876.05c2.286.457 3.017 1.557 3.097 1.6.023.011.05-.011.04-.034a2.382 2.382 0 0 0-.101-.229M6.789 10.866a.229.229 0 0 0 .35.028.649.649 0 0 0 .162-.275c.07-.265.053-.546-.048-.802a.777.777 0 0 0-.336-.386.123.123 0 0 0-.094-.016.441.441 0 0 0-.229.176.075.075 0 0 0 .02.112.686.686 0 0 1 .355.482.74.74 0 0 1-.18.583.075.075 0 0 0 0 .098ZM2.514 11.2a.74.74 0 0 0-.8.686.79.79 0 0 0 .75.802.74.74 0 0 0 .79-.672.786.786 0 0 0-.74-.816Z" fill="#000"/><path d="M23.93 12a11.945 11.945 0 1 0-19.308 9.406l.228.18c.078.06.158.117.229.174a11.903 11.903 0 0 0 4.07 1.851h.035l.203.048.062.012.192.041.076.014.187.034.073.014c.124.02.247.038.37.055l.074.011.139.016.142.016.132.014.153.013H12.874l.13-.011.166-.014.137-.016.16-.018.14-.018.153-.023.142-.023.148-.023.144-.027.147-.028.144-.032.141-.03.144-.034.14-.034.176-.025.132-.037.149-.04.13-.04.146-.048c.044-.011.087-.025.128-.04l.149-.051.123-.044.149-.054.119-.046.146-.057.114-.046.151-.064.112-.048.151-.069.108-.05.15-.073.103-.053.151-.075.1-.055c.053-.025.104-.052.152-.08l.098-.055.15-.087.092-.054.153-.092.087-.055.153-.096.083-.055.153-.102.077-.053.156-.11.07-.052.158-.117.064-.048.16-.123.058-.048.162-.13.048-.044.167-.14.039-.034.171-.155.025-.02.18-.172a11.906 11.906 0 0 0 3.683-8.626L23.929 12Zm-8.307 4c-.016-.133-.032-.267-.053-.4-.02-.133-.039-.265-.064-.395s-.045-.263-.07-.394a5.5 5.5 0 0 0-.09-.381.178.178 0 0 1 .339-.108 9.322 9.322 0 0 1 .22.81 15.566 15.566 0 0 1 .267 1.886c.228.01.473.027.708.05a9.143 9.143 0 0 1 1.879.395.162.162 0 0 1-.078.313h-.011c-.307-.053-.604-.126-.915-.16l-.228-.034-.114-.016h-.115l-.457-.044c-.078-.011-.155 0-.228-.016l-.229-.013h-.17v.116l.02.41v1.234c0 .274-.021.546-.03.818-.01.272-.04.546-.065.818a.178.178 0 0 1-.354-.016c0-.27 0-.54.014-.809.014-.27 0-.542 0-.811 0-.27 0-.54-.014-.807l-.014-.405v-.594h-.763c-.155 0-.31.014-.457.018-.146.005-.311.016-.457.03a23.497 23.497 0 0 0-2.777.363.165.165 0 0 1-.192-.128.164.164 0 0 1 .116-.187c.313-.085.62-.151.933-.213.313-.061.624-.112.94-.16.155-.025.315-.04.472-.061.158-.021.316-.037.473-.05.158-.014.316-.03.476-.037.16-.007.318-.023.478-.025.251-.012.502-.014.756 0-.027-.336-.06-.67-.1-1.002l-.046.005Zm-6.057-1.625a37.71 37.71 0 0 0-.549 2.009 57.487 57.487 0 0 0-.935 6.313c-1.03-.38-2-.908-2.877-1.568.183-1.376.477-2.735.88-4.064.146-.482.347-.946.598-1.383a1.94 1.94 0 0 1 .805-.672l.06-.027.098-.055.125-.064c.087-.041.172-.082.256-.119l.13-.057.129-.053.26-.1c.229-.085.617-.204.86-.274.125-.037.192 0 .16.114Zm10.18 3.2c-.356-1.328-.839-3.408-2.263-3.886-1.517-.516-3.15-.574-4.726-.473-1.123.072-2.234.27-3.312.592-.478.14-2.01.727-2.314.882a2.087 2.087 0 0 0-.861.72c-.27.468-.485.965-.643 1.481a28.345 28.345 0 0 0-.88 3.886 11.959 11.959 0 0 1-.777-.71C-.466 15.63-.486 8.444 3.925 3.984c4.412-4.46 11.599-4.518 16.081-.129 4.483 4.389 4.578 11.574.213 16.08a18.495 18.495 0 0 0-.473-2.359" fill="#000"/></svg>