<svg width="193" height="52" fill="none"
  xmlns="http://www.w3.org/2000/svg">
  <g clip-path="url(#a)">
    <path d="M26.515 48.648c-2.9.508-5.852.66-8.906 1.067L8.295 22.496v28.387c-2.9.304-5.547.71-8.295 1.117V0h7.736L18.32 29.504V0h8.194v48.648Zm16.032-29.605c3.155 0 7.99-.152 10.89-.152v8.124c-3.613 0-7.837 0-10.89.153v12.086c4.784-.305 9.568-.711 14.402-.864v7.82l-22.546 1.778V0H56.95v8.125H42.547v10.918ZM87.23 8.125h-8.448V45.5c-2.748 0-5.496 0-8.142.101V8.125h-8.448V0H87.23v8.125Zm13.232 10.36h11.146v8.124h-11.146v18.434h-7.99V0h22.749v8.125h-14.759v10.36Zm27.992 19.449c4.631.1 9.313.457 13.842.71v8.024c-7.277-.457-14.555-.914-21.985-1.067V0h8.143v37.934Zm20.713 9.293c2.595.152 5.344.305 7.99.609V0h-7.99v47.227ZM192.833 0l-10.331 24.73L192.833 52c-3.054-.406-6.107-.965-9.161-1.473l-5.852-15.03-5.954 13.812c-2.952-.508-5.802-.66-8.754-1.067l10.484-23.816L164.13 0h8.753l5.344 13.66 5.7-13.66h8.906Z" fill="#6C6C6C"/>
  </g>
  <defs>
    <clipPath id="a">
      <path fill="#fff" d="M0 0h192.833v52H0z"/>
    </clipPath>
  </defs>
</svg>