<svg width="185" height="52" fill="none"
  xmlns="http://www.w3.org/2000/svg">
  <g clip-path="url(#a)">
    <path d="M40.558 9.849a.497.497 0 0 0-.45-.417c-.187-.016-3.846-.071-3.846-.071s-3.06-2.958-3.362-3.258c-.302-.301-.893-.21-1.122-.142l-1.537.474a10.695 10.695 0 0 0-.736-1.8c-1.09-2.069-2.685-3.163-4.613-3.165h-.007c-.134 0-.267.012-.4.024a5.892 5.892 0 0 0-.174-.2C23.47.4 22.393-.036 21.104.002c-2.49.071-4.97 1.86-6.98 5.04-1.415 2.236-2.491 5.045-2.796 7.22-2.86.882-4.858 1.497-4.902 1.512-1.443.451-1.489.495-1.677 1.849C4.609 16.646.833 45.7.833 45.7l31.642 5.447 13.714-3.393s-5.595-37.648-5.63-37.906ZM28.657 6.923l-2.456.756c-.018-1.254-.168-3-.756-4.508 1.89.356 2.82 2.483 3.212 3.752ZM24.546 8.19c-1.659.51-3.468 1.068-5.283 1.628.51-1.946 1.478-3.883 2.668-5.153.442-.472 1.06-.999 1.793-1.3.69 1.43.839 3.456.822 4.825Zm-3.392-6.539c.584-.013 1.076.115 1.497.39-.673.348-1.323.848-1.934 1.499-1.581 1.689-2.793 4.31-3.276 6.838-1.508.464-2.982.92-4.34 1.337.858-3.98 4.21-9.953 8.053-10.064Z" fill="#6C6C6C"/>
    <path d="M40.11 9.433c-.188-.016-3.846-.07-3.846-.07s-3.06-2.958-3.363-3.259a.75.75 0 0 0-.425-.194l.002 45.236 13.713-3.391S40.595 10.108 40.56 9.85a.499.499 0 0 0-.45-.417Z" fill="#828282"/>
    <path d="m24.875 16.45-1.593 5.93s-1.776-.804-3.882-.673c-3.089.195-3.122 2.133-3.09 2.62.168 2.652 7.18 3.231 7.573 9.443.31 4.887-2.605 8.23-6.805 8.495-5.04.316-7.815-2.643-7.815-2.643l1.068-4.52s2.793 2.097 5.03 1.956c1.46-.092 1.981-1.274 1.928-2.11-.22-3.46-5.929-3.255-6.29-8.94-.303-4.783 2.854-9.63 9.82-10.067 2.683-.172 4.056.51 4.056.51Z" fill="#F3EDE5"/>
    <path d="M64.249 28.867c-1.577-.851-2.388-1.569-2.388-2.556 0-1.255 1.126-2.061 2.884-2.061 2.046 0 3.873.851 3.873.851l1.442-4.394s-1.326-1.032-5.226-1.032c-5.428 0-9.19 3.094-9.19 7.443 0 2.466 1.757 4.349 4.1 5.693 1.892 1.075 2.568 1.838 2.568 2.958 0 1.166-.946 2.107-2.702 2.107-2.618 0-5.09-1.345-5.09-1.345l-1.532 4.394s2.284 1.524 6.127 1.524c5.586 0 9.595-2.735 9.595-7.666-.001-2.643-2.028-4.527-4.461-5.916ZM86.503 19.632c-2.748 0-4.91 1.3-6.576 3.272l-.09-.045 2.387-12.418h-6.217L69.97 42.047h6.218l2.072-10.804c.81-4.08 2.927-6.59 4.91-6.59 1.396 0 1.937.942 1.937 2.288 0 .851-.09 1.883-.27 2.734l-2.342 12.373h6.218l2.431-12.777c.271-1.345.452-2.958.452-4.035-.003-3.497-1.85-5.604-5.093-5.604ZM105.648 19.632c-7.479 0-12.432 6.725-12.432 14.21 0 4.797 2.972 8.652 8.559 8.652 7.342 0 12.298-6.544 12.298-14.21 0-4.438-2.614-8.652-8.425-8.652Zm-3.063 18.112c-2.118 0-3.019-1.793-3.019-4.035 0-3.541 1.848-9.324 5.226-9.324 2.208 0 2.927 1.883 2.927 3.721 0 3.81-1.845 9.638-5.134 9.638ZM129.974 19.632c-4.196 0-6.577 3.676-6.577 3.676h-.089l.36-3.317h-5.496c-.269 2.242-.766 5.648-1.261 8.204l-4.324 22.638h6.217l1.71-9.145h.136s1.276.806 3.65.806c7.297 0 12.071-7.44 12.071-14.974 0-4.167-1.847-7.888-6.397-7.888Zm-5.946 18.2c-1.614 0-2.569-.896-2.569-.896l1.037-5.783c.721-3.855 2.747-6.41 4.91-6.41 1.893 0 2.478 1.747 2.478 3.407 0 3.99-2.388 9.683-5.856 9.683ZM145.246 10.755c-1.982 0-3.559 1.57-3.559 3.586 0 1.838 1.171 3.094 2.928 3.094h.09c1.938 0 3.604-1.3 3.649-3.586 0-1.793-1.216-3.094-3.108-3.094ZM136.552 42.047h6.216l4.235-21.921h-6.262l-4.189 21.92ZM162.815 20.08h-4.325l.225-1.03c.36-2.108 1.622-3.991 3.694-3.991a6.5 6.5 0 0 1 1.981.314l1.217-4.842s-1.081-.537-3.379-.537c-2.208 0-4.414.627-6.081 2.062-2.118 1.793-3.109 4.392-3.604 6.993l-.179 1.032h-2.884l-.901 4.663h2.884l-3.289 17.304h6.217l3.289-17.304h4.279l.856-4.663ZM177.77 20.126s-3.886 9.743-5.631 15.062h-.091c-.118-1.713-1.531-15.062-1.531-15.062h-6.533l3.741 20.128c.091.447.046.717-.135 1.031-.722 1.39-1.938 2.735-3.379 3.722-1.171.85-2.478 1.389-3.513 1.748L162.409 52c1.262-.269 3.874-1.3 6.081-3.362 2.839-2.645 5.451-6.725 8.153-12.285l7.613-16.229h-6.486v.002Z" fill="#6C6C6C"/>
  </g>
  <defs>
    <clipPath id="a">
      <path fill="#fff" transform="translate(.833)" d="M0 0h184.167v52H0z"/>
    </clipPath>
  </defs>
</svg>