<svg width="174" height="52" fill="none"
  xmlns="http://www.w3.org/2000/svg">
  <g clip-path="url(#a)">
    <path d="M25.994 0C11.638 0 0 11.64 0 26s11.638 26 25.994 26 25.993-11.64 25.993-26C51.987 11.642 40.35 0 25.993 0V0Zm11.92 37.499a1.62 1.62 0 0 1-2.228.54c-6.104-3.733-13.787-4.575-22.835-2.508a1.62 1.62 0 1 1-.72-3.159c9.9-2.264 18.394-1.29 25.246 2.898a1.62 1.62 0 0 1 .537 2.23v-.001Zm3.181-7.079a2.027 2.027 0 0 1-2.787.668c-6.986-4.295-17.637-5.54-25.902-3.03a2.03 2.03 0 0 1-2.529-1.35 2.03 2.03 0 0 1 1.352-2.529c9.44-2.865 21.175-1.477 29.199 3.455a2.027 2.027 0 0 1 .667 2.787Zm.274-7.372c-8.38-4.977-22.2-5.434-30.198-3.006a2.43 2.43 0 1 1-1.412-4.654c9.182-2.788 24.446-2.25 34.091 3.478a2.432 2.432 0 0 1-2.481 4.183Zm29.35.954c-4.487-1.07-5.286-1.822-5.286-3.4 0-1.492 1.404-2.496 3.491-2.496 2.024 0 4.03.763 6.135 2.332a.294.294 0 0 0 .416-.066l2.191-3.09a.295.295 0 0 0-.056-.4c-2.504-2.01-5.323-2.987-8.62-2.987-4.845 0-8.23 2.91-8.23 7.071 0 4.463 2.92 6.043 7.966 7.263 4.294.99 5.02 1.819 5.02 3.3 0 1.643-1.466 2.664-3.825 2.664-2.62 0-4.757-.883-7.147-2.954a.308.308 0 0 0-.216-.07.292.292 0 0 0-.202.104L59.9 34.198a.292.292 0 0 0 .03.408c2.78 2.483 6.201 3.795 9.892 3.795 5.222 0 8.597-2.854 8.597-7.271.009-3.729-2.223-5.794-7.689-7.124l-.01-.004Zm19.512-4.427c-2.263 0-4.12.892-5.65 2.719v-2.057a.294.294 0 0 0-.294-.294h-4.019a.294.294 0 0 0-.293.294V43.09c0 .162.13.294.293.294h4.019a.294.294 0 0 0 .293-.294v-7.214c1.532 1.72 3.389 2.559 5.651 2.559 4.206 0 8.463-3.238 8.463-9.428.006-6.192-4.252-9.431-8.458-9.431h-.005Zm3.79 9.43c0 3.153-1.941 5.353-4.72 5.353-2.749 0-4.821-2.3-4.821-5.352 0-3.052 2.072-5.352 4.82-5.352 2.735 0 4.722 2.25 4.722 5.351Zm15.585-9.43c-5.416 0-9.659 4.172-9.659 9.498 0 5.268 4.214 9.396 9.593 9.396 5.435 0 9.691-4.157 9.691-9.463 0-5.288-4.227-9.43-9.625-9.43v-.001Zm0 14.814c-2.881 0-5.052-2.315-5.052-5.385 0-3.083 2.096-5.32 4.986-5.32 2.899 0 5.086 2.316 5.086 5.387 0 3.082-2.111 5.318-5.02 5.318Zm21.191-14.446h-4.422V15.42a.294.294 0 0 0-.294-.294h-4.018a.295.295 0 0 0-.294.294v4.523h-1.932a.294.294 0 0 0-.293.294v3.455c0 .162.131.294.293.294h1.932v8.94c0 3.612 1.797 5.443 5.342 5.443 1.442 0 2.638-.298 3.765-.937a.294.294 0 0 0 .148-.255v-3.29a.294.294 0 0 0-.426-.264 5.06 5.06 0 0 1-2.359.57c-1.289 0-1.864-.586-1.864-1.898v-8.307h4.422a.294.294 0 0 0 .293-.295V20.24a.285.285 0 0 0-.289-.294l-.004-.002Zm15.408.017v-.555c0-1.634.626-2.363 2.031-2.363.838 0 1.511.166 2.265.418a.294.294 0 0 0 .386-.28v-3.387a.294.294 0 0 0-.208-.282c-.796-.237-1.815-.48-3.34-.48-3.712 0-5.674 2.09-5.674 6.043v.851h-1.931a.295.295 0 0 0-.294.294v3.473c0 .162.132.294.294.294h1.931v13.788c0 .163.131.295.293.295h4.019a.295.295 0 0 0 .294-.295V23.987h3.753l5.747 13.785c-.652 1.448-1.294 1.736-2.17 1.736-.708 0-1.453-.211-2.216-.629a.3.3 0 0 0-.234-.021.298.298 0 0 0-.174.158l-1.362 2.989a.292.292 0 0 0 .127.38c1.422.77 2.705 1.1 4.292 1.1 2.967 0 4.607-1.383 6.053-5.103l6.972-18.02a.293.293 0 0 0-.273-.4h-4.183a.296.296 0 0 0-.279.197l-4.285 12.244-4.695-12.252a.292.292 0 0 0-.274-.19h-6.866.001Zm-8.933-.017h-4.019a.295.295 0 0 0-.294.294v17.537c0 .163.132.295.294.295h4.019a.295.295 0 0 0 .294-.295V20.238a.292.292 0 0 0-.295-.294l.001-.001Zm-1.987-7.986a2.883 2.883 0 1 0-.007 5.766 2.883 2.883 0 0 0 .009-5.765h-.002Zm35.205 13.624a2.818 2.818 0 0 1-2.828-2.829 2.843 2.843 0 0 1 2.843-2.844 2.816 2.816 0 0 1 2.828 2.828 2.845 2.845 0 0 1-2.843 2.845Zm.016-5.391c-1.449 0-2.545 1.151-2.545 2.562 0 1.41 1.089 2.546 2.53 2.546 1.449 0 2.546-1.15 2.546-2.562 0-1.41-1.09-2.546-2.53-2.546h-.001Zm.627 2.837.8 1.12h-.675l-.72-1.028h-.619v1.028h-.565v-2.97h1.324c.69 0 1.143.354 1.143.948.004.487-.279.784-.686.902h-.002Zm-.478-1.34h-.736v.94h.736c.367 0 .587-.18.587-.47 0-.306-.221-.47-.587-.47Z" fill="#6C6C6C"/>
  </g>
  <defs>
    <clipPath id="a">
      <path fill="#fff" d="M0 0h173.333v52H0z"/>
    </clipPath>
  </defs>
</svg>