<svg width="218" height="52" fill="none"
  xmlns="http://www.w3.org/2000/svg">
  <g clip-path="url(#a)" fill="#6C6C6C">
    <path d="M126.118 27.672c0-5.135-2.198-9.672-9.633-9.672-3.814 0-6.844 1.087-8.487 2.038l1.205 4.12c1.512-.949 3.925-1.73 6.203-1.73 3.764-.006 4.381 2.123 4.381 3.492v.33c-8.216-.013-13.41 2.826-13.41 8.607 0 3.532 2.637 6.844 7.246 6.844 2.812 0 5.188-1.135 6.608-2.926h.138s.936 3.915 6.111 2.418c-.264-1.64-.362-3.367-.362-5.467v-8.054Zm-6.129 5.422c0 .415-.035.846-.157 1.215-.473 1.582-2.105 2.905-4.136 2.905-1.714 0-3.059-.97-3.059-3.003 0-3.11 3.434-3.966 7.352-3.945M.333 11.012S5.7 32.968 6.553 36.524c1.005 4.157 2.804 5.694 7.998 4.67l3.354-13.614c.848-3.373 1.425-5.792 1.973-9.229h.093c.38 3.472.927 5.856 1.621 9.24 0 0 1.369 6.185 2.079 9.425.69 3.24 2.636 5.284 7.732 4.178l7.985-30.182h-6.446l-2.74 13.057c-.726 3.782-1.386 6.762-1.899 10.228h-.093c-.462-3.43-1.05-6.287-1.804-9.992l-2.839-13.293h-6.725l-3.03 12.953c-.864 3.955-1.672 7.126-2.18 10.483h-.087c-.524-3.15-1.233-7.16-1.986-10.967 0 0-1.8-9.274-2.434-12.469M57.35 27.672c0-5.135-2.203-9.672-9.638-9.672-3.803 0-6.839 1.087-8.481 2.038l1.204 4.12c1.507-.949 3.918-1.73 6.204-1.73 3.763-.006 4.38 2.123 4.38 3.492v.33c-8.216-.013-13.415 2.826-13.415 8.607 0 3.532 2.648 6.844 7.235 6.844 2.839 0 5.194-1.135 6.613-2.926h.144s.94 3.915 6.11 2.418c-.265-1.64-.356-3.367-.356-5.467v-8.054Zm-6.134 5.422c0 .415-.035.846-.152 1.215-.478 1.582-2.11 2.905-4.146 2.905-1.704 0-3.054-.97-3.054-3.003 0-3.11 3.434-3.966 7.352-3.945M60.695 11.012v30.172h6.135V11.012h-6.135ZM144.946 11.012v22.261c0 3.073.577 5.215 1.818 6.528 1.09 1.151 2.874 1.9 4.997 1.9 1.824 0 3.607-.35 4.45-.656l-.074-4.792a9.835 9.835 0 0 1-2.34.271c-2.094 0-2.785-1.326-2.785-4.085v-8.522h5.343v-5.765h-5.343v-7.14M129.09 18.523v22.67h6.342v-11.61c0-.624.04-1.164.138-1.664.474-2.448 2.331-3.997 5.008-3.997.747 0 1.255.082 1.818.17v-5.944a6.711 6.711 0 0 0-1.377-.13c-2.373 0-5.063 1.507-6.198 4.79h-.157v-4.285M70.392 18.523v22.67h6.18V27.887c0-.624.07-1.262.29-1.839.502-1.348 1.749-2.908 3.75-2.908 2.488 0 3.663 2.1 3.663 5.13v12.923h6.164V27.728c0-.588.082-1.308.255-1.829.495-1.528 1.845-2.759 3.71-2.759 2.515 0 3.733 2.055 3.733 5.627v12.426h6.158V27.826c0-7.022-3.572-9.808-7.628-9.808-1.784 0-3.203.439-4.48 1.226-1.078.661-2.025 1.594-2.873 2.814h-.092c-.976-2.44-3.267-4.04-6.26-4.04-3.838 0-5.582 1.938-6.608 3.575h-.093v-3.07M189.545 17.506c1.212 0 2.232-.633 2.365-1.446l1.202-13.61c0-1.347-1.587-2.45-3.567-2.45-1.991 0-3.568 1.103-3.568 2.45l1.213 13.61c.127.813 1.142 1.446 2.355 1.446ZM182.173 21.764c.601-1.063.566-2.243-.082-2.77l-11.217-7.843c-1.167-.68-2.913.13-3.913 1.847-.996 1.714-.795 3.639.348 4.306l12.419 5.757c.794.298 1.834-.255 2.445-1.308M196.914 21.753c.636 1.052 1.675 1.605 2.448 1.324l12.419-5.774c1.153-.68 1.326-2.586.351-4.3-.997-1.717-2.754-2.523-3.918-1.856l-11.22 7.836c-.622.534-.667 1.72-.066 2.78M189.545 34.505c1.212 0 2.232.633 2.365 1.446l1.202 13.609c0 1.348-1.587 2.44-3.567 2.44-1.991 0-3.568-1.092-3.568-2.44l1.213-13.61c.127-.812 1.142-1.445 2.355-1.445ZM196.914 30.259c.636-1.056 1.675-1.62 2.448-1.314l12.419 5.763c1.153.667 1.326 2.589.351 4.306-.997 1.704-2.754 2.514-3.918 1.847l-11.22-7.846c-.622-.53-.667-1.71-.066-2.756M182.173 30.247c.601 1.06.566 2.238-.082 2.77l-11.217 7.833c-1.167.68-2.913-.133-3.913-1.837-.996-1.715-.795-3.639.348-4.306l12.419-5.763c.794-.303 1.834.256 2.445 1.303ZM215.415 39.667h.154c.21 0 .295.067.319.234.045.186.069.311.114.364h.399c-.035-.04-.08-.14-.104-.375-.045-.202-.149-.316-.295-.356v-.037c.202-.045.319-.18.319-.348a.46.46 0 0 0-.138-.33 1.084 1.084 0 0 0-.542-.114c-.25 0-.434.021-.58.056v1.504h.354v-.598Zm.01-.686.181-.024c.213 0 .327.099.327.237 0 .154-.154.226-.351.226h-.157v-.439Zm.226-1.02c-.872 0-1.563.68-1.563 1.515 0 .856.691 1.536 1.563 1.536.883 0 1.553-.68 1.553-1.536 0-.835-.67-1.515-1.553-1.515Zm0 .305c.67 0 1.167.543 1.167 1.21 0 .672-.497 1.23-1.167 1.22-.67 0-1.177-.548-1.177-1.22 0-.667.507-1.21 1.167-1.21"/>
  </g>
  <defs>
    <clipPath id="a">
      <path fill="#fff" transform="translate(.333)" d="M0 0h216.87v52H0z"/>
    </clipPath>
  </defs>
</svg>